<?xml version="1.0" encoding="utf-8"?>
<!-- Generator: Adobe Illustrator 21.0.0, SVG Export Plug-In . SVG Version: 6.00 Build 0)  -->
<svg version="1.1" id="Layer_1" xmlns="http://www.w3.org/2000/svg" xmlns:xlink="http://www.w3.org/1999/xlink" x="0px" y="0px"
	 viewBox="0 0 401 74" style="enable-background:new 0 0 401 74;" xml:space="preserve">
<style type="text/css">
	.st0{fill:#FFFFFF;}
	.st1{font-family:'OpenSans';}
	.st2{font-size:12px;}
</style>
<g>
	<polygon class="st0" points="99.7,21.9 103.5,21.9 103.5,53.7 99.5,53.7 99.5,29 90.7,41.3 89.9,41.3 81,29 81,53.7 76.9,53.7 
		76.9,21.9 80.8,21.9 90.3,35 	"/>
	<polygon class="st0" points="126.6,21.9 131.5,21.9 121,36.9 121,53.7 116.8,53.7 116.8,36.9 106.3,21.9 111.2,21.9 118.9,32.8 	
		"/>
	<path class="st0" d="M140.7,40.4l-3.2-2.1c-2-1.3-3.4-2.7-4.2-4c-0.8-1.3-1.3-2.8-1.3-4.5c0-2.5,0.8-4.6,2.4-6.1
		c1.6-1.6,3.7-2.4,6.1-2.4c2.4,0,4.6,0.8,6.6,2.3v5.1c-2.1-2.3-4.3-3.4-6.7-3.4c-1.4,0-2.5,0.4-3.4,1.1c-0.9,0.7-1.3,1.6-1.3,2.7
		c0,1,0.3,1.9,1,2.7c0.6,0.8,1.7,1.7,3.1,2.7l3.2,2.1c3.6,2.3,5.2,5.2,5.2,8.9c0,2.6-0.8,4.7-2.3,6.2c-1.6,1.6-3.6,2.4-6,2.4
		c-2.9,0-5.4-1-7.7-2.9v-5.7c2.3,3.1,4.8,4.7,7.7,4.7c1.3,0,2.4-0.4,3.3-1.2c0.9-0.8,1.3-1.8,1.3-3
		C144.6,43.9,143.3,42.1,140.7,40.4L140.7,40.4z"/>
	<polygon class="st0" points="150.1,21.9 174,21.9 174,26 164,26 164,53.7 159.9,53.7 159.9,26 150.1,26 	"/>
	<polygon class="st0" points="177.6,21.9 193.8,21.9 193.8,26 181.7,26 181.7,35.7 193.4,35.7 193.4,39.8 181.7,39.8 181.7,49.7 
		194.2,49.7 194.2,53.7 177.6,53.7 	"/>
	<path class="st0" d="M208.1,26.3c0.9,0.3,1.6,0.9,2.1,1.7c0.5,0.8,0.7,1.7,0.7,2.7c0,1-0.2,1.9-0.7,2.7c-0.4,0.8-1.1,1.4-1.8,1.8
		c-0.8,0.4-2.2,0.6-4.3,0.6h-1.6v-9.9h1.3C205.7,25.8,207.2,25.9,208.1,26.3L208.1,26.3z M202.5,53.7V39.9h1.1
		c1.4,0,2.3,0.2,2.9,0.5c0.6,0.3,1.2,0.9,1.9,1.7c0.7,0.8,1.5,1.8,2.4,3.2l1.4,2.5l1.3,2.4l0.8,1.3c0.1,0.2,0.2,0.3,0.3,0.4l1.3,2.1
		h4.8l-1.5-2.3c-0.6-0.9-1.4-2.3-2.4-4.1c-1.6-2.9-2.8-4.8-3.7-6c-0.9-1.2-1.8-2.1-2.7-2.8c1.6-0.7,2.8-1.7,3.6-3.1
		c0.8-1.4,1.3-3,1.3-4.8c0-2.7-0.9-4.8-2.6-6.4c-1.7-1.6-4-2.4-6.9-2.4h-7.2v31.9L202.5,53.7L202.5,53.7z"/>
	<polygon class="st0" points="236.3,21.9 241.3,21.9 230.8,36.9 230.8,53.7 226.5,53.7 226.5,36.9 216,21.9 220.9,21.9 228.6,32.8 	
		"/>
	<path class="st0" d="M265.1,26.2c0.9,0.3,1.6,0.9,2.1,1.7c0.5,0.8,0.7,1.7,0.7,2.7s-0.2,1.9-0.7,2.7c-0.4,0.8-1.1,1.4-1.8,1.8
		c-0.8,0.4-2.2,0.6-4.3,0.6h-1.6v-9.9h1.3C262.8,25.7,264.3,25.9,265.1,26.2L265.1,26.2z M259.6,53.7V39.9h1.1
		c1.4,0,2.3,0.2,2.9,0.5c0.6,0.3,1.2,0.9,1.9,1.7c0.7,0.8,1.5,1.8,2.4,3.2l1.4,2.5l1.3,2.4l0.8,1.3c0.1,0.2,0.2,0.3,0.3,0.4l1.3,2.1
		h4.8l-1.5-2.3c-0.6-0.9-1.4-2.3-2.4-4.1c-1.6-2.9-2.8-4.8-3.7-6c-0.9-1.2-1.8-2.1-2.7-2.8c1.6-0.7,2.8-1.7,3.6-3.1
		c0.8-1.4,1.3-3,1.3-4.8c0-2.7-0.9-4.8-2.6-6.4s-4-2.4-6.9-2.4h-7.2v31.9L259.6,53.7L259.6,53.7z"/>
	<path class="st0" d="M285,40.2l4.3-11.6l4.7,11.6H285L285,40.2z M275.6,53.7h4.2l3.6-9.4h12.2l3.8,9.4h4.3l-12.9-32.1h-2.9
		L275.6,53.7L275.6,53.7z"/>
	<polygon class="st0" points="327.5,21.9 331.5,21.9 331.5,53.7 327.9,53.7 308.7,29.2 308.7,53.7 305,53.7 305,21.9 308.2,21.9 
		327.5,46.6 	"/>
	<path class="st0" d="M360.3,46.3v5c-3,1.9-6.5,2.8-10.4,2.8c-3.2,0-5.9-0.7-8.1-2.2c-2.3-1.4-4-3.4-5.2-5.9c-1.3-2.5-2-5.2-2-8.1
		c0-4.7,1.5-8.5,4.5-11.8c3-3.2,6.6-4.7,11-4.7c3,0,6.3,0.9,10,2.7V29c-3.4-2.2-6.6-3.2-9.8-3.2c-3.3,0-5.9,1.2-8.1,3.5
		s-3.3,5.2-3.3,8.7c0,3.5,1.1,6.4,3.2,8.6c2.1,2.3,4.8,3.4,8.2,3.4C353.7,50,357,48.8,360.3,46.3L360.3,46.3z"/>
	<polygon class="st0" points="383.6,21.9 387.7,21.9 387.7,53.7 383.6,53.7 383.6,39.8 367.5,39.8 367.5,53.7 363.5,53.7 
		363.5,21.9 367.5,21.9 367.5,35.6 383.6,35.6 	"/>
	<g>
		<path class="st0" d="M61.7,4.5c0,0,9.3,29.3-22.5,47.1l-0.7-0.8c6.3-4,25.4-23.2,16.2-38.6c0,0-4.7-1.3-11.8,4.6l-0.4-0.4
			c0,0,4.1-10.9,15.6-14.1C58.1,2.2,60.9,1.2,61.7,4.5"/>
		<path class="st0" d="M2.9,33.4c0,0,19.6-23.6,51.7-3.6L54.2,31c-6.7-3.9-33.1-11.6-41.2,4.9c0,0,1.5,5,10.2,8.5L23.1,45
			c0,0-11.4,1.9-20.3-7.1C2.8,37.9,0.5,35.9,2.9,33.4"/>
		<path class="st0" d="M57.4,72.6c0,0-29.4-6.7-28.4-45.5l1.1-0.2c0.1,7.9,6.6,35.8,24.3,35.2c0,0,3.5-3.7,2.1-13.4l0.6-0.2
			c0,0,7.1,9.5,4.1,21.9C61.2,70.5,60.6,73.6,57.4,72.6"/>
	</g>
</g>
<text transform="matrix(1 0 0 1 390.8002 21.1998)" class="st0 st1 st2">®</text>
</svg>
